<svg xmlns="http://www.w3.org/2000/svg" viewBox="0 0 50.93 12.89"><defs><style>.cls-1{fill:#0050cb;}.cls-2{fill:#fff;}</style></defs><g id="Layer_2" data-name="Layer 2"><g id="Layer_1-2" data-name="Layer 1"><rect class="cls-1" width="50.93" height="12.89"/><path class="cls-2" d="M4.47,9H6V4.3H4.73V3.63a4.18,4.18,0,0,0,1.48-.52H7V9H8.33v.88H4.47Z"/><path class="cls-2" d="M10.62,6.43c-.29,0-.55.2-.78.62l-.57-.41a1.66,1.66,0,0,1,1.37-1c.83,0,1.25.85,1.83.85.29,0,.54-.19.77-.62l.58.43a1.69,1.69,0,0,1-1.37,1C11.61,7.28,11.2,6.43,10.62,6.43Z"/><path class="cls-2" d="M14.57,9.27c2-1.77,3-3.08,3-4.2a1.1,1.1,0,0,0-1.15-1.24,1.85,1.85,0,0,0-1.33.75L14.52,4a2.66,2.66,0,0,1,2.06-1,1.92,1.92,0,0,1,2,2c0,1.3-1,2.66-2.47,4A10.48,10.48,0,0,1,17.25,9H19v.91H14.57Z"/><path class="cls-2" d="M22.21,6.3A2,2,0,0,1,20,4.43a2,2,0,0,1,2.17-1.88A2,2,0,0,1,24.4,4.43,2,2,0,0,1,22.21,6.3Zm0-.78a1.14,1.14,0,0,0,1.27-1.09,1.14,1.14,0,0,0-1.27-1.1A1.14,1.14,0,0,0,21,4.43,1.13,1.13,0,0,0,22.21,5.52ZM27,9.75v.74H21.3V8.31h4.49V7.62H21.28V6.88h5.45V9h-4.5v.74ZM26.73,6.5h-.95V2.27h.95Z"/><path class="cls-2" d="M35.49,5.82c0,1.8-.91,2.93-2.15,2.93s-2.13-1.13-2.13-2.93.9-2.93,2.13-2.93S35.49,4,35.49,5.82Zm-3.37,0c0,1.3.5,2.09,1.22,2.09s1.24-.79,1.24-2.09-.51-2.07-1.24-2.07S32.12,4.53,32.12,5.82Zm5.65-3.55v8.34h-1V2.27Z"/><path class="cls-2" d="M40.72,7.69a16.29,16.29,0,0,0,2.43-.25l.11.81a16.25,16.25,0,0,1-2.94.25h-.55V3.24h.95Zm5.75-5.41V10.6h-.9V6.37h-1v3.81h-.89V2.45h.89V5.59h1V2.28Z"/></g></g></svg>