<svg xmlns="http://www.w3.org/2000/svg" viewBox="0 0 31.34 31.34"><defs><style>.cls-1{fill:#5cb433;}.cls-2{fill:#fff;}.cls-3{fill:#e8722d;}</style></defs><g id="Layer_2" data-name="Layer 2"><g id="Layer_1-2" data-name="Layer 1"><rect class="cls-1" width="31.34" height="31.34" rx="6.27"/><path class="cls-2" d="M29.09,16.74A4.24,4.24,0,0,1,24.85,21H6.49a4.24,4.24,0,0,1-4.24-4.25V6.65A4.24,4.24,0,0,1,6.49,2.4H24.85a4.24,4.24,0,0,1,4.24,4.25Z"/><path class="cls-2" d="M19,20.27l-2.73-.17V20l-.57,0-.58,0v.08l-2.72.17L15,24.51a.59.59,0,0,0,.07.1.74.74,0,0,0,.63.36.69.69,0,0,0,.62-.36.44.44,0,0,0,.08-.1Z"/><path class="cls-3" d="M8.21,9.79a2.19,2.19,0,0,0-1.4.65V7.83H5.17v6.85H6.83v-.54a1.57,1.57,0,0,0,1.38.71,2.43,2.43,0,0,0,2.32-2.56S10.44,9.79,8.21,9.79ZM7.85,13.4A1.06,1.06,0,1,1,8.9,12.35,1.06,1.06,0,0,1,7.85,13.4Z"/><path class="cls-3" d="M11.05,7.68V9.26s.75,0,.75,1.36v4.06h1.59V10.25S13.46,7.68,11.05,7.68Z"/><path class="cls-3" d="M17.26,9.81s-2.72,0-2.72,2.54a2.46,2.46,0,0,0,2.72,2.5s2.78,0,2.78-2.5A2.5,2.5,0,0,0,17.26,9.81Zm0,3.59a1.06,1.06,0,1,1,1.06-1.05A1.06,1.06,0,0,1,17.26,13.4Z"/><path class="cls-3" d="M24.57,10v.46a1.79,1.79,0,0,0-1.38-.63,2.26,2.26,0,0,0-2.32,2.52s0,2.44,2.26,2.44a1.9,1.9,0,0,0,1.44-.63v.38a1,1,0,0,1-1.05,1.2h-.39v1.46h.64a2.38,2.38,0,0,0,2.4-2.57V10Zm-1,3.42a1.06,1.06,0,1,1,1.05-1.05A1.05,1.05,0,0,1,23.59,13.4Z"/></g></g></svg>