<svg xmlns="http://www.w3.org/2000/svg" viewBox="0 0 22.88 23.7"><g id="Layer_2" data-name="Layer 2"><g id="Layer_1-2" data-name="Layer 1"><path d="M21.26,11.89a2.94,2.94,0,0,1,.69.51,3.3,3.3,0,0,1,.51.67,3.77,3.77,0,0,1,.32.78,3.49,3.49,0,0,1,.1.86v2.45a3.22,3.22,0,0,1-.43,1.64A3.16,3.16,0,0,1,21.26,20v.45A3.17,3.17,0,0,1,21,21.71a3.23,3.23,0,0,1-.7,1,3.28,3.28,0,0,1-1,.7A3.21,3.21,0,0,1,18,23.7H0V11.44H5.31l4.49-6V3.26a3.24,3.24,0,0,1,1-2.3,3.23,3.23,0,0,1,1-.7A3.09,3.09,0,0,1,13.08,0a3,3,0,0,1,1.27.26,3.23,3.23,0,0,1,1,.7,3.28,3.28,0,0,1,.7,1,3.15,3.15,0,0,1,.25,1.26v4.1a3.1,3.1,0,0,1-.1.81H18a3.21,3.21,0,0,1,1.28.25,3.28,3.28,0,0,1,1,.7,3.29,3.29,0,0,1,1,2.32ZM12.08,22.07a2.56,2.56,0,0,1-.47-.76,2.36,2.36,0,0,1-.17-.87v-9a2.4,2.4,0,0,1,.2-1,2.21,2.21,0,0,1,.53-.78A2.55,2.55,0,0,1,13.93,9l.26-.37a4.4,4.4,0,0,0,.26-.39,1.92,1.92,0,0,0,.19-.41,1.33,1.33,0,0,0,.08-.45V3.26a1.65,1.65,0,0,0-.13-.63,1.73,1.73,0,0,0-.36-.52,1.5,1.5,0,0,0-.51-.35,1.64,1.64,0,0,0-1.28,0,1.5,1.5,0,0,0-.51.35,1.73,1.73,0,0,0-.36.52,1.65,1.65,0,0,0-.13.63V6L6.13,13.08H1.64v9ZM18,9.8h-4.6a.64.64,0,0,0-.3.09,1.6,1.6,0,0,0-.26.19,1.48,1.48,0,0,0-.43.62,2.06,2.06,0,0,0-.13.74v.82h7.36v-.82a1.53,1.53,0,0,0-.13-.64,1.85,1.85,0,0,0-.35-.51,1.73,1.73,0,0,0-.52-.36A1.7,1.7,0,0,0,18,9.8Zm3.28,4.91a1.7,1.7,0,0,0-.13-.64,1.73,1.73,0,0,0-.36-.52,1.65,1.65,0,0,0-.51-.35,1.69,1.69,0,0,0-.64-.12H12.26v2.45h9Zm0,2.45v-.82h-9V18.8h7.36a1.53,1.53,0,0,0,.64-.13,1.85,1.85,0,0,0,.51-.35,1.73,1.73,0,0,0,.36-.52A1.7,1.7,0,0,0,21.26,17.16Zm-1.64,3.28v-.82H12.26v.82a1.53,1.53,0,0,0,.13.64,2,2,0,0,0,.35.51,1.54,1.54,0,0,0,.52.35,1.7,1.7,0,0,0,.64.13H18a1.7,1.7,0,0,0,.64-.13,1.54,1.54,0,0,0,.52-.35,2,2,0,0,0,.35-.51A1.53,1.53,0,0,0,19.62,20.44Z"/></g></g></svg>