<svg xmlns="http://www.w3.org/2000/svg" width="173.242" height="42.534" viewBox="0 0 173.242 42.534">
  <g id="그룹_33" data-name="그룹 33" transform="translate(-239.876 -379.697)">
    <path id="패스_1" data-name="패스 1" d="M244.617,397.6a5.322,5.322,0,0,1,5.5-5.5,5.586,5.586,0,0,1,3.583,1.219l3.285-3.31a10.118,10.118,0,0,0-6.868-2.65,10.243,10.243,0,1,0,6.921,17.783l-3.33-3.284a5.494,5.494,0,0,1-3.591,1.246A5.321,5.321,0,0,1,244.617,397.6Z" transform="translate(0 -4.078)" fill="#0050cd"/>
    <path id="패스_2" data-name="패스 2" d="M342.925,387.353v20.487h4.712V395.5l6.1,5.511,6.075-5.548v12.373h4.712V387.353h-1.887l-8.9,8.111-8.928-8.111Z" transform="translate(-54.883 -4.077)" fill="#0050cd"/>
    <path id="패스_3" data-name="패스 3" d="M412,387.353h-8.558V407.84h4.684v-5.688h3.988a7.4,7.4,0,0,0-.114-14.8Zm.085,10.888h-3.959v-7.09h3.959a3.564,3.564,0,0,1,3.56,3.56A3.508,3.508,0,0,1,412.083,398.241Z" transform="translate(-87.113 -4.078)" fill="#0050cd"/>
    <path id="패스_4" data-name="패스 4" d="M453.848,399.3h6.8v-3.8h-6.8v-4.432h7.687v-3.713h-12.37v20.487h12.37v-3.656h-7.687Z" transform="translate(-111.465 -4.077)" fill="#0050cd"/>
    <path id="패스_5" data-name="패스 5" d="M496.8,387.353h-7.472V407.84H496.8a10.243,10.243,0,0,0,0-20.487Zm.028,15.889h-2.845V392.15h2.845a5.546,5.546,0,1,1,0,11.091Z" transform="translate(-132.853 -4.078)" fill="#0050cd"/>
    <rect id="사각형_14" data-name="사각형 14" width="4.684" height="20.487" transform="translate(380.414 383.275)" fill="#0050cd"/>
    <path id="패스_6" data-name="패스 6" d="M577.63,405.039h.012l1.314,2.8h4.584L573.9,387.353h-1.942l-9.56,20.487h4.55l6.027-12.91Z" transform="translate(-171.771 -4.077)" fill="#0050cd"/>
    <path id="패스_7" data-name="패스 7" d="M310.864,393.514l-2.249,4.766,4.626,10.04h.012l1.314,2.8h4.584Z" transform="translate(-36.61 -7.359)" fill="#7dfff6"/>
    <path id="패스_8" data-name="패스 8" d="M301.456,379.7h-4.362l-11.175,24.065h4.55l6.059-12.841,2.249-4.766,3.047-6.458Z" transform="translate(-24.522)" fill="#0050cd"/>
    <path id="패스_9" data-name="패스 9" d="M346.7,444.943a31.926,31.926,0,0,0-20.2,7.143,31.926,31.926,0,0,0-20.2-7.143H239.876v3.7h66.416a28.292,28.292,0,0,1,20.138,8.34l.067-.067.067.067a28.292,28.292,0,0,1,20.138-8.34h66.416v-3.7Z" transform="translate(0 -34.749)" fill="#0050cd"/>
  </g>
</svg>
