<svg xmlns="http://www.w3.org/2000/svg" viewBox="0 0 127.02 49"><defs><style>.cls-1{fill:#0050cd;}.cls-2{fill:#00c3d5;}.cls-3{fill:#fff;}</style></defs><g id="Layer_2" data-name="Layer 2"><g id="Layer_1-2" data-name="Layer 1"><path class="cls-1" d="M3.48,28a3.9,3.9,0,0,1,4-4,4.13,4.13,0,0,1,2.63.9l2.41-2.43a7.41,7.41,0,0,0-5-1.94,7.51,7.51,0,1,0,5.08,13l-2.45-2.41A4,4,0,0,1,7.51,32,3.9,3.9,0,0,1,3.48,28Z"/><polygon class="cls-1" points="35.32 20.44 35.32 35.46 38.77 35.46 38.77 26.41 43.24 30.45 47.7 26.39 47.7 35.46 51.15 35.46 51.15 20.44 49.77 20.44 43.25 26.39 36.7 20.44 35.32 20.44"/><path class="cls-1" d="M62.33,20.44H56.06v15h3.43V31.29h2.92a5.43,5.43,0,0,0-.08-10.85Zm.06,8h-2.9v-5.2h2.9A2.61,2.61,0,0,1,65,25.83,2.57,2.57,0,0,1,62.39,28.42Z"/><polygon class="cls-1" points="75.16 29.19 80.14 29.19 80.14 26.41 75.16 26.41 75.16 23.16 80.8 23.16 80.8 20.44 71.72 20.44 71.72 35.46 80.8 35.46 80.8 32.78 75.16 32.78 75.16 29.19"/><path class="cls-1" d="M91,20.44H85.49v15H91a7.51,7.51,0,1,0,0-15Zm0,11.65H88.9V24H91a4.07,4.07,0,1,1,0,8.14Z"/><rect class="cls-1" x="103.04" y="20.44" width="3.43" height="15.02"/><polygon class="cls-1" points="121.7 33.41 121.71 33.41 122.67 35.46 126.03 35.46 118.96 20.44 117.54 20.44 110.53 35.46 113.87 35.46 118.28 25.99 121.7 33.41"/><polygon class="cls-2" points="25.21 22.55 23.56 26.04 26.95 33.41 26.96 33.41 27.92 35.46 31.28 35.46 25.21 22.55"/><polygon class="cls-1" points="27.17 17.81 25.63 17.81 23.97 17.81 15.78 35.46 18.98 35.46 19.11 35.46 23.56 26.04 25.21 22.55 27.44 17.81 27.17 17.81"/><path class="cls-1" d="M78.33,40.17a23.41,23.41,0,0,0-14.82,5.24A23.39,23.39,0,0,0,48.7,40.17H0v2.71H48.7A20.76,20.76,0,0,1,63.46,49l0,0,.05,0a20.76,20.76,0,0,1,14.77-6.12H127V40.17Z"/><rect class="cls-2" x="93.83" width="33.19" height="10.79"/><path class="cls-3" d="M101.51,3.21a2.5,2.5,0,0,1,1.08.23,2.75,2.75,0,0,1,.91.63,3.15,3.15,0,0,1,.85,2.2,3.18,3.18,0,0,1-.22,1.21,3,3,0,0,1-.61.95,2.94,2.94,0,0,1-.91.64,2.9,2.9,0,0,1-1.11.24A3.22,3.22,0,0,1,100.08,9,2.68,2.68,0,0,1,99,8.2l-.09.91H98V1.38h1V4.31a2.5,2.5,0,0,1,1-.82A3.55,3.55,0,0,1,101.51,3.21Zm-.24,5.28a2.08,2.08,0,0,0,.83-.16,2,2,0,0,0,.66-.45,2.19,2.19,0,0,0,.44-.7,2.38,2.38,0,0,0,.16-.91,2.51,2.51,0,0,0-.16-.92,2,2,0,0,0-.44-.71,1.92,1.92,0,0,0-.66-.46,2.27,2.27,0,0,0-.83-.16,2.42,2.42,0,0,0-.88.16,1.83,1.83,0,0,0-.66.46,2.14,2.14,0,0,0-.41.71,2.73,2.73,0,0,0-.14.92,2.6,2.6,0,0,0,.14.91,2.19,2.19,0,0,0,.41.7,1.83,1.83,0,0,0,.66.46A2.42,2.42,0,0,0,101.27,8.49Z"/><path class="cls-3" d="M106.34,7.1a2.11,2.11,0,0,0,.35.62,2.87,2.87,0,0,0,.52.47,2.41,2.41,0,0,0,.6.3,1.81,1.81,0,0,0,.65.11,2.4,2.4,0,0,0,1.14-.28,4.6,4.6,0,0,0,1-.71l.71.54a4,4,0,0,1-1.19.91,3.3,3.3,0,0,1-1.49.35,3.7,3.7,0,0,1-1.3-.22,3,3,0,0,1-1.07-.63,2.9,2.9,0,0,1-.73-1,3,3,0,0,1-.27-1.31A3.19,3.19,0,0,1,105.5,5a3.06,3.06,0,0,1,.7-1,3.15,3.15,0,0,1,1-.64,3.23,3.23,0,0,1,1.25-.23,3.19,3.19,0,0,1,1.16.21,3,3,0,0,1,1,.58,2.86,2.86,0,0,1,.67.9A3.17,3.17,0,0,1,111.57,6Zm-.15-.77,4.28-1a2.39,2.39,0,0,0-.83-1.11,1.94,1.94,0,0,0-1.1-.35,2.37,2.37,0,0,0-.93.18,2.53,2.53,0,0,0-.75.48,2.08,2.08,0,0,0-.49.74,2.47,2.47,0,0,0-.18,1Z"/><path class="cls-3" d="M114.45,3.41h1.45v.81h-1.45V7.57a.74.74,0,0,0,.2.53.87.87,0,0,0,.62.2H116v.81h-1.2a1.12,1.12,0,0,1-.51-.11,1.19,1.19,0,0,1-.43-.3,1.37,1.37,0,0,1-.3-.44,1.51,1.51,0,0,1-.11-.56V4.22h-1.27V3.41h1.27v-2h1Z"/><path class="cls-3" d="M119.35,3.21a3.35,3.35,0,0,1,1.45.29,2.56,2.56,0,0,1,1,.82l.09-.91h.89v5.7h-.89l-.09-.91a2.75,2.75,0,0,1-1.06.83,3.25,3.25,0,0,1-1.42.28,2.78,2.78,0,0,1-2-.88,2.87,2.87,0,0,1-.61-.95,3.18,3.18,0,0,1-.23-1.21A3.14,3.14,0,0,1,116.74,5a2.93,2.93,0,0,1,.62-1,2.82,2.82,0,0,1,.9-.63A2.57,2.57,0,0,1,119.35,3.21Zm.24,5.28a2.37,2.37,0,0,0,.87-.15,1.83,1.83,0,0,0,.66-.46,1.88,1.88,0,0,0,.41-.7,2.59,2.59,0,0,0,.15-.91,2.73,2.73,0,0,0-.15-.92,1.87,1.87,0,0,0-1.07-1.17,2.37,2.37,0,0,0-.87-.16,2.23,2.23,0,0,0-.83.16,2,2,0,0,0-.67.46,2,2,0,0,0-.43.71,2.51,2.51,0,0,0-.16.92,2.38,2.38,0,0,0,.16.91,2.17,2.17,0,0,0,.43.7,2.08,2.08,0,0,0,.67.45A2,2,0,0,0,119.59,8.49Z"/></g></g></svg>