<svg xmlns="http://www.w3.org/2000/svg" viewBox="0 0 26.16 26.16"><g id="Layer_2" data-name="Layer 2"><g id="Layer_1-2" data-name="Layer 1"><path d="M18.28,13.08l6.8,6.8a3.56,3.56,0,0,1,.8,1.2,3.49,3.49,0,0,1,.28,1.39,3.67,3.67,0,0,1-.29,1.44,3.77,3.77,0,0,1-.79,1.17,3.67,3.67,0,0,1-2.61,1.08,3.5,3.5,0,0,1-1.4-.28,3.62,3.62,0,0,1-1.19-.8l-6.8-6.8V17a9.65,9.65,0,0,1-2,.71A9.12,9.12,0,0,1,9,18a8.57,8.57,0,0,1-2.39-.32,8.89,8.89,0,0,1-2.15-.9,8.61,8.61,0,0,1-1.82-1.41,9,9,0,0,1-2.32-4,9,9,0,0,1,0-4.77,9.33,9.33,0,0,1,.91-2.15A8.61,8.61,0,0,1,2.64,2.64,8.61,8.61,0,0,1,4.46,1.23,9.33,9.33,0,0,1,6.61.32a9,9,0,0,1,4.77,0,9.25,9.25,0,0,1,2.14.91,8.61,8.61,0,0,1,1.82,1.41,9.15,9.15,0,0,1,1.41,1.82,9.33,9.33,0,0,1,.91,2.15A9,9,0,0,1,18,9a9.12,9.12,0,0,1-.24,2.09,10.21,10.21,0,0,1-.72,2ZM9,16.35A7.06,7.06,0,0,0,11,16.09a7.14,7.14,0,0,0,1.75-.74,7.56,7.56,0,0,0,1.49-1.16,6.67,6.67,0,0,0,1.15-1.49A7.14,7.14,0,0,0,16.08,11,7.06,7.06,0,0,0,16.34,9a7,7,0,0,0-.26-1.95,7,7,0,0,0-.74-1.76A6.9,6.9,0,0,0,14.19,3.8,7.36,7.36,0,0,0,12.7,2.64,7.14,7.14,0,0,0,11,1.9,7.06,7.06,0,0,0,9,1.64,7.08,7.08,0,0,0,7,1.9a7.21,7.21,0,0,0-1.76.74A7.81,7.81,0,0,0,2.64,5.28,7.21,7.21,0,0,0,1.9,7a7.08,7.08,0,0,0-.26,2,7.07,7.07,0,0,0,.58,2.86A7.23,7.23,0,0,0,3.8,14.19a7.58,7.58,0,0,0,2.34,1.59A7.19,7.19,0,0,0,9,16.35Zm6.53-2.45a9.1,9.1,0,0,1-.76.87,7,7,0,0,1-.87.76l.82.82,1.62-1.63Zm5.5,10,1.44-1.44-6.31-6.33-1.44,1.45Zm2.26-2.26.63-.63-6.31-6.32-.63.62Z"/></g></g></svg>